<?xml version="1.0" encoding="UTF-8"?>
<svg xmlns="http://www.w3.org/2000/svg" xmlns:xlink="http://www.w3.org/1999/xlink" width="5000" height="5000" viewBox="0 0 5000 5000">

<path fill-rule="nonzero" fill="rgb(100%, 100%, 100%)" fill-opacity="1" d="M 1798.710938 3496.898438 C 1798.710938 3500.289062 1797.628906 3502.109375 1795.460938 3502.390625 C 1778.519531 3504.28125 1766.898438 3507.398438 1760.601562 3511.738281 C 1754.300781 3516.070312 1751.011719 3524.410156 1750.738281 3536.738281 L 1746.269531 3775.980469 C 1746.269531 3778.691406 1744.640625 3780.039062 1741.390625 3780.039062 C 1739.769531 3780.039062 1737.601562 3778.960938 1734.890625 3776.789062 L 1525.320312 3539.988281 L 1522.480469 3728.011719 C 1522.339844 3729.089844 1522.269531 3730.109375 1522.269531 3731.058594 C 1522.269531 3741.359375 1525.519531 3748.640625 1532.03125 3752.910156 C 1538.53125 3757.179688 1550.261719 3760.328125 1567.191406 3762.359375 C 1569.359375 3762.628906 1570.449219 3764.460938 1570.449219 3767.851562 C 1570.449219 3771.640625 1569.359375 3773.539062 1567.191406 3773.539062 C 1560.148438 3773.539062 1550.460938 3773.128906 1538.128906 3772.320312 C 1526.609375 3771.511719 1517.730469 3771.101562 1511.5 3771.101562 C 1504.71875 3771.101562 1495.578125 3771.511719 1484.058594 3772.320312 C 1472.949219 3773.128906 1464.339844 3773.539062 1458.238281 3773.539062 C 1456.078125 3773.539062 1454.988281 3771.640625 1454.988281 3767.851562 C 1454.988281 3764.460938 1456.210938 3762.628906 1458.648438 3762.359375 C 1475.449219 3760.328125 1486.96875 3757.179688 1493.210938 3752.910156 C 1499.441406 3748.640625 1502.761719 3740.339844 1503.171875 3728.011719 L 1510.28125 3536.738281 L 1510.28125 3534.910156 C 1510.28125 3523.929688 1507.089844 3516.28125 1500.730469 3511.941406 C 1494.359375 3507.601562 1482.5 3504.351562 1465.160156 3502.179688 C 1463.261719 3502.179688 1462.308594 3500.289062 1462.308594 3496.488281 C 1462.308594 3492.699219 1463.390625 3490.800781 1465.558594 3490.800781 C 1470.300781 3490.800781 1476.941406 3491.210938 1485.480469 3492.019531 C 1493.070312 3492.828125 1498.761719 3493.238281 1502.558594 3493.238281 C 1507.300781 3493.238281 1512.988281 3492.828125 1519.628906 3492.019531 C 1526.410156 3491.210938 1532.230469 3490.800781 1537.109375 3490.800781 L 1732.851562 3709.71875 L 1732.851562 3536.738281 C 1732.851562 3525.21875 1729.570312 3517.121094 1723 3512.449219 C 1716.421875 3507.769531 1704.261719 3504.421875 1686.511719 3502.390625 C 1684.339844 3502.109375 1683.261719 3500.289062 1683.261719 3496.898438 C 1683.261719 3493.101562 1684.339844 3491.210938 1686.511719 3491.210938 C 1693.828125 3491.210938 1703.578125 3491.539062 1715.78125 3492.21875 C 1727.160156 3492.898438 1735.96875 3493.238281 1742.199219 3493.238281 C 1748.980469 3493.238281 1758.128906 3492.898438 1769.640625 3492.21875 C 1780.761719 3491.539062 1789.359375 3491.210938 1795.460938 3491.210938 C 1797.628906 3491.210938 1798.710938 3493.101562 1798.710938 3496.898438 "/>
<path fill-rule="nonzero" fill="rgb(100%, 100%, 100%)" fill-opacity="1" d="M 2154.070312 3767.851562 C 2154.070312 3771.640625 2152.988281 3773.539062 2150.820312 3773.539062 C 2141.46875 3773.539062 2130.898438 3773.128906 2119.109375 3772.320312 C 2108.941406 3771.511719 2100.269531 3771.101562 2093.089844 3771.101562 C 2084.820312 3771.101562 2074.589844 3771.511719 2062.398438 3772.320312 C 2049.519531 3773.128906 2038.550781 3773.539062 2029.46875 3773.539062 C 2027.300781 3773.539062 2026.21875 3771.640625 2026.21875 3767.851562 C 2026.21875 3764.058594 2027.03125 3762.160156 2028.660156 3762.160156 C 2040.71875 3761.621094 2049.390625 3760.019531 2054.671875 3757.378906 C 2059.960938 3754.738281 2062.601562 3750.640625 2062.601562 3745.078125 C 2062.601562 3741.558594 2061.25 3735.941406 2058.539062 3728.210938 L 2035.570312 3660.121094 L 1951.820312 3660.121094 L 1928.648438 3723.128906 C 1925.671875 3731.53125 1924.179688 3738.039062 1924.179688 3742.640625 C 1924.179688 3754.570312 1935.148438 3761.070312 1957.109375 3762.160156 C 1958.730469 3762.160156 1959.550781 3764.058594 1959.550781 3767.851562 C 1959.550781 3771.640625 1958.460938 3773.539062 1956.289062 3773.539062 C 1948.160156 3773.539062 1939.148438 3773.128906 1929.261719 3772.320312 C 1919.910156 3771.511719 1911.578125 3771.101562 1904.261719 3771.101562 C 1898.429688 3771.101562 1891.109375 3771.511719 1882.300781 3772.320312 C 1873.089844 3773.128906 1865.230469 3773.539062 1858.730469 3773.539062 C 1856.691406 3773.539062 1855.679688 3771.851562 1855.679688 3768.460938 C 1855.679688 3764.660156 1857.238281 3762.628906 1860.351562 3762.359375 C 1871.601562 3761.28125 1880.511719 3758.160156 1887.078125 3753.011719 C 1893.648438 3747.859375 1900.460938 3737.359375 1907.511719 3721.511719 L 2002.640625 3487.949219 C 2003.449219 3485.789062 2005.351562 3484.699219 2008.328125 3484.699219 C 2011.578125 3484.699219 2013.609375 3485.71875 2014.429688 3487.75 L 2098.378906 3721.511719 C 2103.121094 3734.648438 2109.519531 3744.339844 2117.578125 3750.570312 C 2125.648438 3756.808594 2136.449219 3760.730469 2150 3762.359375 C 2152.710938 3762.628906 2154.070312 3764.460938 2154.070312 3767.851562 Z M 2031.089844 3647.109375 L 1995.320312 3543.238281 L 1956.699219 3647.109375 L 2031.089844 3647.109375 "/>
<path fill-rule="nonzero" fill="rgb(100%, 100%, 100%)" fill-opacity="1" d="M 2500.078125 3557.671875 C 2500.078125 3560.25 2497.640625 3561.539062 2492.761719 3561.539062 C 2490.589844 3561.539062 2489.238281 3560.589844 2488.691406 3558.691406 C 2482.871094 3539.578125 2474.53125 3526.070312 2463.691406 3518.140625 C 2452.851562 3510.210938 2436.789062 3506.25 2415.519531 3506.25 L 2396.410156 3506.25 C 2389.769531 3506.25 2385.230469 3507.328125 2382.789062 3509.5 C 2380.351562 3511.671875 2379.128906 3515.730469 2379.128906 3521.699219 L 2379.128906 3728.011719 C 2379.128906 3737.359375 2380.320312 3743.96875 2382.691406 3747.828125 C 2385.058594 3751.691406 2389.261719 3754.738281 2395.289062 3756.96875 C 2401.320312 3759.210938 2409.960938 3761.011719 2421.210938 3762.359375 C 2423.378906 3762.628906 2424.460938 3764.460938 2424.460938 3767.851562 C 2424.460938 3771.640625 2423.378906 3773.539062 2421.210938 3773.539062 C 2412.128906 3773.539062 2401.289062 3773.128906 2388.691406 3772.320312 C 2376.761719 3771.511719 2366.800781 3771.101562 2358.808594 3771.101562 C 2350.539062 3771.101562 2340.378906 3771.511719 2328.320312 3772.320312 C 2315.71875 3773.128906 2304.871094 3773.539062 2295.789062 3773.539062 C 2293.628906 3773.539062 2292.539062 3771.640625 2292.539062 3767.851562 C 2292.539062 3764.460938 2293.628906 3762.628906 2295.789062 3762.359375 C 2312.191406 3760.460938 2323.339844 3757.410156 2329.230469 3753.210938 C 2335.128906 3749.011719 2338.070312 3740.609375 2338.070312 3728.011719 L 2338.070312 3521.699219 C 2338.070312 3515.730469 2336.859375 3511.671875 2334.421875 3509.5 C 2331.980469 3507.328125 2327.371094 3506.25 2320.589844 3506.25 L 2304.738281 3506.25 C 2285.628906 3506.25 2268.289062 3511.089844 2252.699219 3520.78125 C 2237.121094 3530.46875 2226.960938 3543.039062 2222.210938 3558.488281 C 2221.539062 3560.519531 2220.039062 3561.539062 2217.738281 3561.539062 C 2213.128906 3561.539062 2210.828125 3560.039062 2210.828125 3557.058594 C 2218.421875 3536.601562 2225.601562 3513.429688 2232.378906 3487.550781 C 2250.808594 3491.339844 2292.949219 3493.238281 2358.808594 3493.238281 C 2426.429688 3493.238281 2469.449219 3491.339844 2487.878906 3487.550781 C 2489.78125 3505.160156 2493.839844 3528.539062 2500.078125 3557.671875 "/>
<path fill-rule="nonzero" fill="rgb(100%, 100%, 100%)" fill-opacity="1" d="M 2869.660156 3496.488281 C 2869.660156 3500.289062 2868.578125 3502.179688 2866.410156 3502.179688 C 2849.339844 3504.351562 2837.890625 3507.5 2832.058594 3511.628906 C 2826.230469 3515.769531 2823.320312 3524.128906 2823.320312 3536.738281 L 2823.320312 3664.179688 C 2823.320312 3700.371094 2814.578125 3728.71875 2797.101562 3749.25 C 2779.621094 3769.78125 2754.949219 3780.039062 2723.109375 3780.039062 C 2686.789062 3780.039062 2658.46875 3770.261719 2638.140625 3750.671875 C 2617.820312 3731.089844 2607.648438 3704.429688 2607.648438 3670.691406 L 2607.648438 3536.738281 C 2607.648438 3527.390625 2606.539062 3520.78125 2604.300781 3516.921875 C 2602.058594 3513.058594 2597.96875 3509.96875 2592 3507.671875 C 2586.039062 3505.371094 2577.300781 3503.539062 2565.78125 3502.179688 C 2563.609375 3502.179688 2562.53125 3500.289062 2562.53125 3496.488281 C 2562.53125 3492.699219 2563.609375 3490.800781 2565.78125 3490.800781 C 2574.859375 3490.800781 2585.628906 3491.210938 2598.101562 3492.019531 C 2610.03125 3492.828125 2620.121094 3493.238281 2628.390625 3493.238281 C 2636.648438 3493.238281 2646.820312 3492.828125 2658.878906 3492.019531 C 2671.480469 3491.210938 2682.320312 3490.800781 2691.398438 3490.800781 C 2693.570312 3490.800781 2694.648438 3492.699219 2694.648438 3496.488281 C 2694.648438 3500.289062 2693.570312 3502.179688 2691.398438 3502.179688 C 2679.878906 3503.539062 2671.140625 3505.328125 2665.179688 3507.570312 C 2659.21875 3509.808594 2655.050781 3512.851562 2652.679688 3516.71875 C 2650.308594 3520.578125 2649.121094 3527.25 2649.121094 3536.738281 L 2649.121094 3665 C 2649.121094 3698.328125 2655.421875 3722.789062 2668.019531 3738.378906 C 2680.628906 3753.960938 2701.160156 3761.75 2729.609375 3761.75 C 2783.140625 3761.75 2809.898438 3727.871094 2809.898438 3660.121094 L 2809.898438 3536.738281 C 2809.898438 3524.128906 2806.890625 3515.699219 2800.859375 3511.429688 C 2794.828125 3507.160156 2783.480469 3504.078125 2766.808594 3502.179688 C 2764.640625 3502.179688 2763.558594 3500.289062 2763.558594 3496.488281 C 2763.558594 3492.699219 2764.640625 3490.800781 2766.808594 3490.800781 C 2773.039062 3490.800781 2781.238281 3491.210938 2791.410156 3492.019531 C 2801.839844 3492.828125 2810.308594 3493.238281 2816.808594 3493.238281 C 2823.320312 3493.238281 2831.449219 3492.828125 2841.210938 3492.019531 C 2851.230469 3491.210938 2859.628906 3490.800781 2866.410156 3490.800781 C 2868.578125 3490.800781 2869.660156 3492.699219 2869.660156 3496.488281 "/>
<path fill-rule="nonzero" fill="rgb(100%, 100%, 100%)" fill-opacity="1" d="M 3225.429688 3767.851562 C 3225.429688 3771.640625 3224.339844 3773.539062 3222.171875 3773.539062 C 3217.160156 3773.539062 3208.960938 3773.070312 3197.578125 3772.121094 C 3189.308594 3771.441406 3183.820312 3771.101562 3181.109375 3771.101562 C 3177.179688 3771.101562 3171.019531 3771.511719 3162.621094 3772.320312 C 3154.21875 3773.128906 3148.050781 3773.539062 3144.121094 3773.539062 L 3082.53125 3673.128906 C 3073.859375 3659.308594 3066.851562 3650.429688 3061.488281 3646.5 C 3056.140625 3642.570312 3045.398438 3640.609375 3029.28125 3640.609375 L 3029.28125 3728.011719 C 3029.28125 3737.359375 3030.460938 3743.96875 3032.828125 3747.828125 C 3035.199219 3751.691406 3039.410156 3754.738281 3045.441406 3756.96875 C 3051.46875 3759.210938 3060.101562 3761.011719 3071.351562 3762.359375 C 3073.660156 3762.628906 3074.808594 3764.460938 3074.808594 3767.851562 C 3074.808594 3771.640625 3073.71875 3773.539062 3071.558594 3773.539062 C 3062.480469 3773.539062 3051.640625 3773.128906 3039.03125 3772.320312 C 3026.96875 3771.511719 3016.808594 3771.101562 3008.539062 3771.101562 C 3000.28125 3771.101562 2990.179688 3771.511719 2978.261719 3772.320312 C 2965.789062 3773.128906 2955.019531 3773.539062 2945.941406 3773.539062 C 2943.769531 3773.539062 2942.691406 3771.640625 2942.691406 3767.851562 C 2942.691406 3764.460938 2943.769531 3762.628906 2945.941406 3762.359375 C 2957.179688 3761.011719 2965.789062 3759.210938 2971.75 3756.96875 C 2977.710938 3754.738281 2981.878906 3751.71875 2984.25 3747.929688 C 2986.621094 3744.128906 2987.808594 3737.488281 2987.808594 3728.011719 L 2987.808594 3536.738281 C 2987.808594 3527.390625 2986.691406 3520.78125 2984.460938 3516.921875 C 2982.21875 3513.058594 2978.121094 3509.96875 2972.160156 3507.671875 C 2966.199219 3505.371094 2957.460938 3503.539062 2945.941406 3502.179688 C 2943.769531 3502.179688 2942.691406 3500.289062 2942.691406 3496.488281 C 2942.691406 3492.699219 2943.769531 3490.800781 2945.941406 3490.800781 C 2955.019531 3490.800781 2965.789062 3491.210938 2978.261719 3492.019531 C 2990.179688 3492.828125 3000.28125 3493.238281 3008.539062 3493.238281 C 3016.808594 3493.238281 3026.96875 3492.828125 3039.03125 3492.019531 C 3051.640625 3491.210938 3062.480469 3490.800781 3071.558594 3490.800781 C 3101.769531 3490.800781 3125.148438 3497.199219 3141.679688 3510.011719 C 3158.210938 3522.808594 3166.480469 3540.800781 3166.480469 3563.96875 C 3166.480469 3578.609375 3160.75 3592.191406 3149.300781 3604.730469 C 3137.851562 3617.261719 3122.371094 3626.921875 3102.859375 3633.691406 L 3168.511719 3733.699219 C 3173.929688 3742.640625 3180.910156 3749.25 3189.449219 3753.519531 C 3197.988281 3757.789062 3209.03125 3760.730469 3222.578125 3762.359375 C 3224.480469 3762.628906 3225.429688 3764.460938 3225.429688 3767.851562 Z M 3121.761719 3563.96875 C 3121.761719 3524.410156 3104.480469 3504.621094 3069.929688 3504.621094 C 3058.550781 3504.621094 3049.910156 3505.539062 3044.011719 3507.371094 C 3038.121094 3509.191406 3034.191406 3512.070312 3032.21875 3516.011719 C 3030.261719 3519.929688 3029.28125 3526.839844 3029.28125 3536.738281 L 3029.28125 3627.191406 C 3037.140625 3628.269531 3047.03125 3628.820312 3058.949219 3628.820312 C 3080.769531 3628.820312 3096.691406 3623.671875 3106.71875 3613.371094 C 3116.75 3603.070312 3121.761719 3586.609375 3121.761719 3563.96875 "/>
<path fill-rule="nonzero" fill="rgb(100%, 100%, 100%)" fill-opacity="1" d="M 3545.011719 3706.460938 C 3534.03125 3729.910156 3525.089844 3752.269531 3518.179688 3773.539062 C 3467.089844 3771.910156 3430.710938 3771.101562 3409.019531 3771.101562 C 3387.609375 3771.101562 3351.300781 3771.910156 3300.078125 3773.539062 C 3297.910156 3773.539062 3296.820312 3771.640625 3296.820312 3767.851562 C 3296.820312 3764.460938 3297.910156 3762.628906 3300.078125 3762.359375 C 3311.320312 3761.011719 3319.929688 3759.210938 3325.890625 3756.96875 C 3331.851562 3754.738281 3336.019531 3751.71875 3338.390625 3747.929688 C 3340.761719 3744.128906 3341.949219 3737.488281 3341.949219 3728.011719 L 3341.949219 3536.738281 C 3341.949219 3527.390625 3340.828125 3520.78125 3338.589844 3516.921875 C 3336.359375 3513.058594 3332.261719 3509.96875 3326.300781 3507.671875 C 3320.328125 3505.371094 3311.589844 3503.539062 3300.078125 3502.179688 C 3297.910156 3502.179688 3296.820312 3500.289062 3296.820312 3496.488281 C 3296.820312 3492.699219 3297.910156 3490.800781 3300.078125 3490.800781 C 3334.21875 3492.429688 3369.191406 3493.238281 3404.960938 3493.238281 C 3441 3493.238281 3476.03125 3492.429688 3510.050781 3490.800781 C 3513.160156 3511.800781 3517.699219 3532.539062 3523.671875 3553 C 3523.671875 3555.710938 3521.289062 3557.058594 3516.550781 3557.058594 C 3514.25 3557.058594 3512.828125 3556.109375 3512.28125 3554.21875 C 3502.25 3522.238281 3480.839844 3506.25 3448.050781 3506.25 L 3406.988281 3506.25 C 3391.269531 3506.25 3383.410156 3514.378906 3383.410156 3530.640625 L 3383.410156 3621.089844 L 3434.640625 3621.089844 C 3448.191406 3621.089844 3457.371094 3617.980469 3462.179688 3611.738281 C 3466.988281 3605.511719 3470.339844 3594.460938 3472.238281 3578.609375 C 3472.238281 3576.441406 3474.140625 3575.359375 3477.929688 3575.359375 C 3481.730469 3575.359375 3483.621094 3576.441406 3483.621094 3578.609375 C 3483.621094 3585.390625 3483.21875 3593.921875 3482.398438 3604.21875 C 3481.589844 3614.109375 3481.179688 3622.179688 3481.179688 3628.410156 C 3481.179688 3634.78125 3481.589844 3642.910156 3482.398438 3652.800781 C 3483.21875 3663.371094 3483.621094 3672.039062 3483.621094 3678.820312 C 3483.621094 3680.988281 3481.730469 3682.070312 3477.929688 3682.070312 C 3474.140625 3682.070312 3472.238281 3680.988281 3472.238281 3678.820312 C 3470.210938 3662.289062 3466.648438 3650.699219 3461.570312 3644.058594 C 3456.488281 3637.421875 3447.511719 3634.101562 3434.640625 3634.101562 L 3383.410156 3634.101562 L 3383.410156 3734.109375 C 3383.410156 3750.101562 3391.269531 3758.089844 3406.988281 3758.089844 L 3451.300781 3758.089844 C 3467.429688 3758.089844 3483.421875 3752.839844 3499.269531 3742.339844 C 3515.128906 3731.839844 3526.78125 3718.730469 3534.238281 3703.011719 C 3534.78125 3701.789062 3535.929688 3701.179688 3537.691406 3701.179688 C 3539.589844 3701.179688 3541.28125 3701.691406 3542.769531 3702.699219 C 3544.261719 3703.71875 3545.011719 3704.96875 3545.011719 3706.460938 "/>
<path fill-rule="nonzero" fill="rgb(100%, 100%, 100%)" fill-opacity="1" d="M 1773.988281 3965.550781 C 1773.289062 3964.761719 1772.769531 3963.96875 1772.410156 3963.179688 C 1772.058594 3962.390625 1772.371094 3961.511719 1773.339844 3960.539062 L 1782.160156 3951.851562 C 1782.949219 3951.148438 1783.71875 3950.910156 1784.46875 3951.121094 C 1785.210938 3951.339844 1785.980469 3951.808594 1786.769531 3952.511719 C 1788.089844 3953.820312 1789.558594 3955.160156 1791.191406 3956.53125 C 1792.808594 3957.890625 1794.570312 3959.121094 1796.460938 3960.210938 C 1798.339844 3961.308594 1800.390625 3962.191406 1802.578125 3962.851562 C 1804.78125 3963.511719 1807.101562 3963.839844 1809.558594 3963.839844 C 1812.199219 3963.839844 1814.53125 3963.480469 1816.550781 3962.78125 C 1818.558594 3962.078125 1820.300781 3961.140625 1821.75 3959.949219 C 1823.199219 3958.761719 1824.300781 3957.398438 1825.039062 3955.871094 C 1825.789062 3954.328125 1826.160156 3952.730469 1826.160156 3951.058594 C 1826.160156 3948.949219 1825.519531 3947.171875 1824.25 3945.71875 C 1822.980469 3944.269531 1821.421875 3943.039062 1819.578125 3942.039062 C 1817.730469 3941.019531 1815.730469 3940.191406 1813.578125 3939.53125 C 1811.429688 3938.871094 1809.480469 3938.320312 1807.71875 3937.890625 C 1797.089844 3934.71875 1788.988281 3930.839844 1783.410156 3926.230469 C 1777.839844 3921.621094 1775.050781 3915.578125 1775.050781 3908.109375 C 1775.050781 3904.070312 1775.910156 3900.390625 1777.621094 3897.050781 C 1779.328125 3893.710938 1781.738281 3890.828125 1784.859375 3888.421875 C 1787.980469 3886.011719 1791.738281 3884.140625 1796.128906 3882.820312 C 1800.519531 3881.5 1805.351562 3880.839844 1810.621094 3880.839844 C 1816.410156 3880.839844 1821.96875 3882.210938 1827.28125 3884.929688 C 1832.589844 3887.648438 1837.230469 3890.988281 1841.179688 3894.941406 C 1842.761719 3896.609375 1842.71875 3898.320312 1841.050781 3900.078125 L 1833.800781 3907.851562 C 1832.921875 3908.640625 1832.089844 3908.878906 1831.300781 3908.570312 C 1830.511719 3908.269531 1829.671875 3907.761719 1828.800781 3907.058594 C 1827.738281 3906.179688 1826.53125 3905.21875 1825.171875 3904.160156 C 1823.808594 3903.109375 1822.320312 3902.121094 1820.691406 3901.199219 C 1819.070312 3900.28125 1817.359375 3899.511719 1815.558594 3898.890625 C 1813.761719 3898.28125 1811.890625 3897.96875 1809.960938 3897.96875 C 1808.289062 3897.96875 1806.558594 3898.101562 1804.761719 3898.371094 C 1802.949219 3898.628906 1801.328125 3899.128906 1799.878906 3899.878906 C 1798.429688 3900.628906 1797.21875 3901.679688 1796.261719 3903.039062 C 1795.289062 3904.398438 1794.808594 3906.230469 1794.808594 3908.511719 C 1794.808594 3910.179688 1795.269531 3911.628906 1796.191406 3912.859375 C 1797.109375 3914.089844 1798.429688 3915.160156 1800.140625 3916.078125 C 1801.859375 3917.011719 1803.878906 3917.859375 1806.199219 3918.648438 C 1808.53125 3919.441406 1811.101562 3920.230469 1813.910156 3921.019531 C 1818.390625 3922.339844 1822.601562 3923.808594 1826.558594 3925.441406 C 1830.511719 3927.058594 1833.960938 3929.058594 1836.898438 3931.429688 C 1839.839844 3933.800781 1842.191406 3936.609375 1843.941406 3939.859375 C 1845.699219 3943.109375 1846.578125 3947.019531 1846.578125 3951.589844 C 1846.578125 3956.148438 1845.570312 3960.300781 1843.550781 3964.03125 C 1841.53125 3967.769531 1838.828125 3970.949219 1835.449219 3973.578125 C 1832.070312 3976.21875 1828.160156 3978.238281 1823.71875 3979.640625 C 1819.289062 3981.050781 1814.699219 3981.75 1809.960938 3981.75 C 1803.109375 3981.75 1796.519531 3980.261719 1790.199219 3977.269531 C 1783.878906 3974.289062 1778.46875 3970.378906 1773.988281 3965.550781 "/>
<path fill-rule="nonzero" fill="rgb(100%, 100%, 100%)" fill-opacity="1" d="M 1910.898438 3885.460938 C 1910.898438 3884.671875 1911.160156 3883.980469 1911.691406 3883.410156 C 1912.21875 3882.839844 1912.960938 3882.558594 1913.929688 3882.558594 L 1927.359375 3882.558594 C 1929.210938 3882.558594 1930.179688 3883.519531 1930.261719 3885.460938 L 1930.261719 3962.519531 L 1968.730469 3962.519531 C 1969.519531 3962.519531 1970.199219 3962.78125 1970.769531 3963.308594 C 1971.339844 3963.839844 1971.628906 3964.578125 1971.628906 3965.550781 L 1971.628906 3977.539062 C 1971.628906 3979.378906 1970.660156 3980.351562 1968.730469 3980.429688 L 1913.800781 3980.429688 C 1911.859375 3980.429688 1910.898438 3979.46875 1910.898438 3977.539062 L 1910.898438 3885.460938 "/>
<path fill-rule="nonzero" fill="rgb(100%, 100%, 100%)" fill-opacity="1" d="M 2126.839844 3931.558594 C 2126.839844 3938.5 2125.519531 3945.019531 2122.890625 3951.121094 C 2120.25 3957.230469 2116.648438 3962.539062 2112.089844 3967.058594 C 2107.519531 3971.589844 2102.160156 3975.171875 2096.011719 3977.800781 C 2089.871094 3980.429688 2083.320312 3981.75 2076.390625 3981.75 C 2069.449219 3981.75 2062.929688 3980.429688 2056.820312 3977.800781 C 2050.71875 3975.171875 2045.410156 3971.589844 2040.890625 3967.058594 C 2036.359375 3962.539062 2032.808594 3957.230469 2030.210938 3951.121094 C 2027.621094 3945.019531 2026.328125 3938.5 2026.328125 3931.558594 C 2026.328125 3924.539062 2027.621094 3917.96875 2030.210938 3911.871094 C 2032.808594 3905.761719 2036.359375 3900.449219 2040.890625 3895.929688 C 2045.410156 3891.410156 2050.71875 3887.828125 2056.820312 3885.191406 C 2062.929688 3882.558594 2069.449219 3881.238281 2076.390625 3881.238281 C 2083.320312 3881.238281 2089.871094 3882.558594 2096.011719 3885.191406 C 2102.160156 3887.828125 2107.519531 3891.410156 2112.089844 3895.929688 C 2116.648438 3900.449219 2120.25 3905.761719 2122.890625 3911.871094 C 2125.519531 3917.96875 2126.839844 3924.539062 2126.839844 3931.558594 Z M 2107.480469 3931.558594 C 2107.480469 3927.078125 2106.691406 3922.910156 2105.101562 3919.050781 C 2103.519531 3915.179688 2101.351562 3911.820312 2098.578125 3908.96875 C 2095.820312 3906.121094 2092.550781 3903.859375 2088.769531 3902.191406 C 2084.988281 3900.519531 2080.871094 3899.679688 2076.390625 3899.679688 C 2072 3899.679688 2067.910156 3900.519531 2064.140625 3902.191406 C 2060.359375 3903.859375 2057.089844 3906.121094 2054.320312 3908.96875 C 2051.558594 3911.820312 2049.398438 3915.179688 2047.871094 3919.050781 C 2046.328125 3922.910156 2045.558594 3927.078125 2045.558594 3931.558594 C 2045.558594 3935.949219 2046.328125 3940.078125 2047.871094 3943.941406 C 2049.398438 3947.808594 2051.558594 3951.171875 2054.320312 3954.019531 C 2057.089844 3956.878906 2060.359375 3959.140625 2064.140625 3960.808594 C 2067.910156 3962.480469 2072 3963.308594 2076.390625 3963.308594 C 2080.871094 3963.308594 2084.988281 3962.480469 2088.769531 3960.808594 C 2092.550781 3959.140625 2095.820312 3956.878906 2098.578125 3954.019531 C 2101.351562 3951.171875 2103.519531 3947.808594 2105.101562 3943.941406 C 2106.691406 3940.078125 2107.480469 3935.949219 2107.480469 3931.558594 "/>
<path fill-rule="nonzero" fill="rgb(100%, 100%, 100%)" fill-opacity="1" d="M 2239.640625 3963.96875 C 2242.179688 3963.96875 2244.789062 3963.621094 2247.46875 3962.910156 C 2250.148438 3962.210938 2252.539062 3961.070312 2254.648438 3959.488281 L 2254.648438 3939.328125 C 2254.648438 3937.578125 2255.53125 3936.699219 2257.289062 3936.699219 L 2269.011719 3936.699219 C 2269.628906 3936.699219 2270.199219 3936.878906 2270.71875 3937.230469 C 2271.25 3937.578125 2271.511719 3938.28125 2271.511719 3939.328125 L 2271.511719 3969.238281 C 2271.511719 3970.378906 2271.078125 3971.339844 2270.199219 3972.140625 C 2266.25 3974.859375 2261.660156 3977.140625 2256.429688 3978.988281 C 2251.210938 3980.828125 2245.609375 3981.75 2239.640625 3981.75 C 2232.699219 3981.75 2226.160156 3980.429688 2220.011719 3977.800781 C 2213.859375 3975.171875 2208.480469 3971.558594 2203.871094 3967 C 2199.261719 3962.429688 2195.640625 3957.070312 2193 3950.929688 C 2190.371094 3944.78125 2189.050781 3938.238281 2189.050781 3931.300781 C 2189.050781 3924.359375 2190.371094 3917.839844 2193 3911.738281 C 2195.640625 3905.628906 2199.21875 3900.320312 2203.738281 3895.800781 C 2208.261719 3891.269531 2213.601562 3887.71875 2219.738281 3885.128906 C 2225.890625 3882.539062 2232.429688 3881.238281 2239.371094 3881.238281 C 2245.339844 3881.238281 2250.699219 3882.101562 2255.441406 3883.808594 C 2260.191406 3885.519531 2264.671875 3887.960938 2268.878906 3891.121094 C 2269.578125 3891.648438 2269.980469 3892.21875 2270.070312 3892.828125 C 2270.148438 3893.449219 2269.980469 3894.019531 2269.539062 3894.550781 L 2261.769531 3905.738281 C 2261.328125 3906.179688 2260.800781 3906.488281 2260.191406 3906.660156 C 2259.570312 3906.839844 2258.871094 3906.660156 2258.078125 3906.140625 C 2255.53125 3904.210938 2252.738281 3902.648438 2249.710938 3901.460938 C 2246.679688 3900.28125 2243.320312 3899.679688 2239.640625 3899.679688 C 2235.070312 3899.679688 2230.828125 3900.5 2226.921875 3902.121094 C 2223.011719 3903.738281 2219.628906 3905.980469 2216.78125 3908.839844 C 2213.929688 3911.691406 2211.691406 3915.03125 2210.058594 3918.851562 C 2208.441406 3922.671875 2207.628906 3926.820312 2207.628906 3931.300781 C 2207.628906 3935.78125 2208.460938 3940.011719 2210.128906 3944.011719 C 2211.800781 3948.011719 2214.058594 3951.5 2216.910156 3954.480469 C 2219.769531 3957.46875 2223.148438 3959.820312 2227.058594 3961.53125 C 2230.960938 3963.238281 2235.160156 3964.058594 2239.640625 3963.96875 "/>
<path fill-rule="nonzero" fill="rgb(100%, 100%, 100%)" fill-opacity="1" d="M 2331.21875 3977.671875 L 2368.371094 3885.191406 C 2369.160156 3883.519531 2370.261719 3882.691406 2371.660156 3882.691406 L 2382.730469 3882.691406 C 2384.308594 3882.691406 2385.410156 3883.519531 2386.019531 3885.191406 L 2423.171875 3977.671875 C 2423.609375 3978.550781 2423.628906 3979.230469 2423.238281 3979.710938 C 2422.839844 3980.191406 2422.210938 3980.429688 2421.328125 3980.429688 L 2406.96875 3980.429688 C 2405.390625 3980.429688 2404.289062 3979.640625 2403.679688 3978.058594 L 2397.351562 3962.261719 L 2356.910156 3962.261719 L 2350.71875 3978.058594 C 2350.101562 3979.640625 2349.011719 3980.429688 2347.429688 3980.429688 L 2332.941406 3980.429688 C 2331 3980.429688 2330.429688 3979.511719 2331.21875 3977.671875 Z M 2377.199219 3907.980469 L 2363.101562 3945.261719 L 2391.03125 3945.261719 L 2377.199219 3907.980469 "/>
<path fill-rule="nonzero" fill="rgb(100%, 100%, 100%)" fill-opacity="1" d="M 2484.589844 3885.589844 C 2484.589844 3884.800781 2484.828125 3884.121094 2485.320312 3883.550781 C 2485.800781 3882.96875 2486.519531 3882.691406 2487.488281 3882.691406 L 2502.898438 3882.691406 C 2503.609375 3882.691406 2504.328125 3882.839844 2505.078125 3883.148438 C 2505.820312 3883.460938 2506.371094 3883.960938 2506.71875 3884.671875 L 2550.058594 3946.96875 L 2550.058594 3884.671875 C 2550.328125 3883.871094 2550.738281 3883.351562 2551.308594 3883.078125 C 2551.890625 3882.820312 2552.429688 3882.691406 2552.960938 3882.691406 L 2566.269531 3882.691406 C 2566.96875 3882.691406 2567.671875 3882.949219 2568.371094 3883.480469 C 2569.078125 3884.011719 2569.429688 3884.710938 2569.429688 3885.589844 L 2569.429688 3977.539062 C 2569.429688 3979.46875 2568.371094 3980.429688 2566.269531 3980.429688 L 2553.21875 3980.429688 C 2552.171875 3980.429688 2551.398438 3980.238281 2550.921875 3979.839844 C 2550.441406 3979.449219 2549.929688 3978.941406 2549.398438 3978.328125 L 2503.691406 3912.460938 L 2503.691406 3977.539062 C 2503.78125 3979.46875 2502.808594 3980.429688 2500.789062 3980.429688 L 2487.488281 3980.429688 C 2485.558594 3980.429688 2484.589844 3979.46875 2484.589844 3977.539062 L 2484.589844 3885.589844 "/>
<path fill-rule="nonzero" fill="rgb(100%, 100%, 100%)" fill-opacity="1" d="M 2794.101562 3977.800781 L 2794.101562 3938.28125 L 2750.230469 3938.28125 L 2750.230469 3977.800781 C 2750.230469 3979.558594 2749.261719 3980.429688 2747.328125 3980.429688 L 2733.5 3980.429688 C 2731.828125 3980.429688 2731 3979.558594 2731 3977.800781 L 2731 3885.460938 C 2731 3884.671875 2731.191406 3884.011719 2731.589844 3883.480469 C 2731.988281 3882.949219 2732.621094 3882.691406 2733.5 3882.691406 L 2747.730469 3882.691406 C 2748.25 3882.691406 2748.800781 3882.859375 2749.371094 3883.21875 C 2749.941406 3883.570312 2750.230469 3884.269531 2750.230469 3885.320312 L 2750.230469 3919.710938 L 2794.101562 3919.710938 L 2794.101562 3885.460938 C 2794.101562 3884.671875 2794.289062 3884.011719 2794.691406 3883.480469 C 2795.089844 3882.949219 2795.71875 3882.691406 2796.601562 3882.691406 L 2810.828125 3882.691406 C 2811.351562 3882.691406 2811.878906 3882.859375 2812.410156 3883.21875 C 2812.929688 3883.570312 2813.199219 3884.269531 2813.199219 3885.320312 L 2813.199219 3977.800781 C 2813.199219 3979.558594 2812.28125 3980.429688 2810.429688 3980.429688 L 2796.601562 3980.429688 C 2794.929688 3980.429688 2794.101562 3979.558594 2794.101562 3977.800781 "/>
<path fill-rule="nonzero" fill="rgb(100%, 100%, 100%)" fill-opacity="1" d="M 2883.179688 3977.800781 L 2883.179688 3885.320312 C 2883.179688 3883.570312 2884.011719 3882.691406 2885.679688 3882.691406 L 2950.101562 3882.691406 C 2951.859375 3882.691406 2952.738281 3883.570312 2952.738281 3885.320312 L 2952.738281 3898.101562 C 2952.738281 3899.859375 2951.859375 3900.738281 2950.101562 3900.738281 L 2902.410156 3900.738281 L 2902.410156 3920.628906 L 2938.769531 3920.628906 C 2940.699219 3920.628906 2941.671875 3921.511719 2941.671875 3923.261719 L 2941.671875 3935.78125 C 2941.671875 3937.53125 2940.699219 3938.410156 2938.769531 3938.410156 L 2902.410156 3938.410156 L 2902.410156 3962.519531 L 2951.289062 3962.519531 C 2953.128906 3962.519531 2954.050781 3963.398438 2954.050781 3965.148438 L 2954.050781 3977.800781 C 2954.050781 3979.558594 2953.128906 3980.429688 2951.289062 3980.429688 L 2885.679688 3980.429688 C 2884.011719 3980.429688 2883.179688 3979.558594 2883.179688 3977.800781 "/>
<path fill-rule="nonzero" fill="rgb(100%, 100%, 100%)" fill-opacity="1" d="M 3018.109375 3977.800781 L 3018.109375 3885.320312 C 3018.109375 3884.621094 3018.308594 3884.011719 3018.699219 3883.480469 C 3019.089844 3882.949219 3019.730469 3882.691406 3020.609375 3882.691406 L 3062.5 3882.691406 C 3066.980469 3882.691406 3071.128906 3883.589844 3074.949219 3885.390625 C 3078.769531 3887.191406 3082.039062 3889.578125 3084.761719 3892.570312 C 3087.488281 3895.558594 3089.621094 3898.980469 3091.148438 3902.839844 C 3092.691406 3906.710938 3093.460938 3910.710938 3093.460938 3914.828125 C 3093.460938 3920.359375 3091.941406 3925.570312 3088.910156 3930.441406 C 3085.878906 3935.320312 3081.871094 3939.199219 3076.859375 3942.101562 L 3094.78125 3977.671875 C 3095.128906 3978.28125 3095.148438 3978.898438 3094.839844 3979.511719 C 3094.53125 3980.128906 3093.941406 3980.429688 3093.058594 3980.429688 L 3076.070312 3980.429688 C 3074.75 3980.429688 3073.738281 3979.691406 3073.039062 3978.199219 L 3057.359375 3946.578125 L 3037.339844 3946.578125 L 3037.339844 3977.800781 C 3037.339844 3979.558594 3036.460938 3980.429688 3034.710938 3980.429688 L 3020.609375 3980.429688 C 3018.941406 3980.429688 3018.109375 3979.558594 3018.109375 3977.800781 Z M 3057.890625 3899.679688 L 3037.339844 3899.679688 L 3037.339844 3929.191406 L 3057.890625 3929.191406 C 3062.460938 3929.191406 3066.261719 3927.808594 3069.289062 3925.039062 C 3072.308594 3922.269531 3073.828125 3918.738281 3073.828125 3914.441406 C 3073.828125 3912.328125 3073.441406 3910.371094 3072.640625 3908.570312 C 3071.851562 3906.769531 3070.730469 3905.21875 3069.289062 3903.898438 C 3067.839844 3902.578125 3066.148438 3901.550781 3064.210938 3900.800781 C 3062.28125 3900.058594 3060.171875 3899.679688 3057.890625 3899.679688 "/>
<path fill-rule="nonzero" fill="rgb(100%, 100%, 100%)" fill-opacity="1" d="M 3156.851562 3977.800781 L 3156.851562 3885.320312 C 3156.851562 3883.570312 3157.691406 3882.691406 3159.359375 3882.691406 L 3223.769531 3882.691406 C 3225.53125 3882.691406 3226.410156 3883.570312 3226.410156 3885.320312 L 3226.410156 3898.101562 C 3226.410156 3899.859375 3225.53125 3900.738281 3223.769531 3900.738281 L 3176.089844 3900.738281 L 3176.089844 3920.628906 L 3212.449219 3920.628906 C 3214.378906 3920.628906 3215.339844 3921.511719 3215.339844 3923.261719 L 3215.339844 3935.78125 C 3215.339844 3937.53125 3214.378906 3938.410156 3212.449219 3938.410156 L 3176.089844 3938.410156 L 3176.089844 3962.519531 L 3224.960938 3962.519531 C 3226.800781 3962.519531 3227.730469 3963.398438 3227.730469 3965.148438 L 3227.730469 3977.800781 C 3227.730469 3979.558594 3226.800781 3980.429688 3224.960938 3980.429688 L 3159.359375 3980.429688 C 3157.691406 3980.429688 3156.851562 3979.558594 3156.851562 3977.800781 "/>
<path fill-rule="evenodd" fill="rgb(4.699707%, 52.539062%, 49.510193%)" fill-opacity="1" d="M 2431.75 2132.878906 C 2418.058594 1887.058594 2481.660156 1644.410156 2630.609375 1441.148438 C 2805.050781 1203.109375 3066.28125 1060.421875 3354.949219 1018.25 C 3476.25 1333.898438 3461.058594 1659.820312 3281.761719 1904.480469 C 3114.191406 2133.140625 2835.78125 2246.5 2524.578125 2243.550781 C 2654.039062 1891.558594 3003.339844 1485.25 3003.339844 1485.25 C 2828.371094 1599.5 2578.761719 2003.789062 2446.609375 2232.578125 C 2394.289062 2352.878906 2355.949219 2516.390625 2422.769531 2676.191406 C 2484.378906 2823.5 2636.398438 2965.070312 2945.769531 3069.148438 C 2968.019531 3076.898438 2979.789062 3101.25 2972.039062 3123.5 C 2964.289062 3145.738281 2939.929688 3157.511719 2917.691406 3149.761719 C 2581.320312 3028.488281 2421.730469 2865.351562 2357.730469 2702.570312 C 2296.628906 2547.148438 2321.769531 2390.371094 2369.238281 2265.039062 C 2388.128906 2215.179688 2410.429688 2170.410156 2431.75 2132.878906 "/>
<path fill-rule="evenodd" fill="rgb(100%, 100%, 100%)" fill-opacity="1" d="M 3440.949219 1685.238281 C 3523.289062 1836.328125 3570.058594 2009.441406 3570.058594 2193.398438 C 3570.058594 2780.730469 3093.21875 3257.570312 2505.890625 3257.570312 C 1918.558594 3257.570312 1441.710938 2780.730469 1441.710938 2193.398438 C 1441.710938 1606.058594 1918.558594 1129.21875 2505.890625 1129.21875 C 2618.949219 1129.21875 2727.921875 1146.890625 2830.128906 1179.601562 C 2800.03125 1199.339844 2771.089844 1220.691406 2743.421875 1243.660156 C 2667.351562 1224.671875 2587.789062 1214.589844 2505.890625 1214.589844 C 1965.671875 1214.589844 1527.078125 1653.179688 1527.078125 2193.398438 C 1527.078125 2733.609375 1965.671875 3172.199219 2505.890625 3172.199219 C 3046.109375 3172.199219 3484.699219 2733.609375 3484.699219 2193.398438 C 3484.699219 2053.691406 3455.371094 1920.789062 3402.550781 1800.539062 C 3418.5 1763.441406 3431.269531 1724.929688 3440.949219 1685.238281 "/>
<path fill-rule="evenodd" fill="rgb(100%, 100%, 100%)" fill-opacity="1" d="M 2632.628906 3099.640625 C 2591.25 3105.390625 2548.910156 3108.359375 2505.890625 3108.359375 C 2000.898438 3108.359375 1590.921875 2698.378906 1590.921875 2193.398438 C 1590.921875 1688.410156 2000.898438 1278.429688 2505.890625 1278.429688 C 2566.539062 1278.429688 2625.808594 1284.339844 2683.171875 1295.621094 C 2664.308594 1314.570312 2646.089844 1334.238281 2628.53125 1354.628906 C 2588.460938 1348.808594 2547.519531 1345.808594 2505.890625 1345.808594 C 2038.089844 1345.808594 1658.300781 1725.601562 1658.300781 2193.398438 C 1658.300781 2661.191406 2038.089844 3040.980469 2505.890625 3040.980469 C 2516.410156 3040.980469 2526.890625 3040.789062 2537.28125 3040.410156 C 2566.398438 3060.601562 2598.128906 3080.378906 2632.628906 3099.640625 Z M 2436.011719 2959.359375 C 2041.699219 2926.800781 1731.398438 2596.050781 1731.398438 2193.398438 C 1731.398438 1769.191406 2075.800781 1424.800781 2500 1424.800781 C 2523.761719 1424.800781 2547.261719 1425.878906 2570.53125 1428 C 2555.171875 1449.199219 2540.691406 1470.78125 2527.101562 1492.691406 C 2518.070312 1492.351562 2509.058594 1492.171875 2500 1492.171875 C 2112.988281 1492.171875 1798.78125 1806.378906 1798.78125 2193.398438 C 1798.78125 2533.738281 2041.769531 2817.769531 2363.609375 2881.339844 C 2384.480469 2907.660156 2408.5 2933.71875 2436.011719 2959.359375 Z M 2492.46875 1552.761719 C 2480.378906 1575.390625 2469.179688 1598.328125 2458.839844 1621.550781 C 2161.621094 1642.660156 1926.699219 1890.808594 1926.699219 2193.398438 C 1926.699219 2429.089844 2069.238281 2631.761719 2272.761719 2719.828125 C 2275.941406 2728.738281 2279.398438 2737.648438 2283.140625 2746.550781 C 2291.488281 2766.449219 2301.261719 2786.351562 2312.589844 2806.191406 C 2050.28125 2725.941406 1859.320312 2481.789062 1859.320312 2193.398438 C 1859.320312 1842.300781 2142.339844 1556.789062 2492.46875 1552.761719 "/>
</svg>
